# This file uses centimeters as units for non-parametric coordinates.

g default
v 109.783081 3.545153 -87.772685
v 109.783081 3.545153 -72.293419
v 109.783081 17.577147 -87.772685
v 109.783081 17.577147 -72.293419
vt 0.000000 0.000000
vt 1.000000 0.000000
vt 1.000000 0.998936
vt 0.000000 0.998936
vn -1.000000 0.000000 0.000000
vn -1.000000 0.000000 0.000000
vn -1.000000 0.000000 0.000000
vn -1.000000 0.000000 0.000000
s off
g pPlane1
f 1/1/1 2/2/2 4/3/3 3/4/4
g default
v 9.781669 3.023724 -22.953098
v 9.781669 3.023724 1.697062
v 9.781669 17.055717 -22.953098
v 9.781669 17.055717 1.697062
vt 0.003886 0.000000
vt 1.000000 0.000000
vt 1.000000 0.998936
vt 0.003886 0.998936
vn -1.000000 0.000000 0.000000
vn -1.000000 0.000000 0.000000
vn -1.000000 0.000000 0.000000
vn -1.000000 0.000000 0.000000
s off
g pPlane2
f 5/5/5 6/6/6 8/7/7 7/8/8
g default
v -27.629265 3.592367 -69.951797
v -12.150007 3.592367 -69.951797
v -27.629265 17.624360 -69.951797
v -12.150007 17.624360 -69.951797
vt 0.000000 0.000000
vt 1.000000 0.000000
vt 1.000000 0.998936
vt 0.000000 0.998936
vn 0.000000 0.000000 1.000000
vn 0.000000 0.000000 1.000000
vn 0.000000 0.000000 1.000000
vn 0.000000 0.000000 1.000000
s off
g pPlane3
f 9/9/9 10/10/10 12/11/11 11/12/12
g default
v 30.293681 3.183483 -272.187336
v 30.293681 3.183483 -287.666584
v 30.293681 17.215476 -272.187336
v 30.293681 17.215476 -287.666584
vt 0.000000 0.000000
vt 1.000000 0.000000
vt 1.000000 0.998936
vt 0.000000 0.998936
vn 1.000000 0.000000 0.000000
vn 1.000000 0.000000 0.000000
vn 1.000000 0.000000 0.000000
vn 1.000000 0.000000 0.000000
s off
g pPlane4
f 13/13/13 14/14/14 16/15/15 15/16/16
g default
v 129.598419 23.636382 -207.458235
v 129.598419 23.636382 -191.978975
v 129.598419 37.668376 -207.458235
v 129.598419 37.668376 -191.978975
vt 0.000000 0.000000
vt 1.000000 0.000000
vt 1.000000 0.998936
vt 0.000000 0.998936
vn -1.000000 0.000000 0.000000
vn -1.000000 0.000000 0.000000
vn -1.000000 0.000000 0.000000
vn -1.000000 0.000000 0.000000
s off
g pPlane5
f 17/17/17 18/18/18 20/19/19 19/20/20
g default
v 207.717131 4.145241 -190.121204
v 192.237871 4.145241 -190.121204
v 207.717131 18.177234 -190.121204
v 192.237871 18.177234 -190.121204
vt 0.000000 0.000000
vt 1.000000 0.000000
vt 1.000000 0.998936
vt 0.000000 0.998936
vn 0.000000 0.000000 -1.000000
vn 0.000000 0.000000 -1.000000
vn 0.000000 0.000000 -1.000000
vn 0.000000 0.000000 -1.000000
s off
g pPlane6
f 21/21/21 22/22/22 24/23/23 23/24/24
g default
v 250.812134 23.417701 -92.152787
v 250.812134 23.417701 -107.632047
v 250.812134 37.449694 -92.152787
v 250.812134 37.449694 -107.632047
vt 0.000000 0.000000
vt 1.000000 0.000000
vt 1.000000 0.998936
vt 0.000000 0.998936
vn 1.000000 0.000000 0.000000
vn 1.000000 0.000000 0.000000
vn 1.000000 0.000000 0.000000
vn 1.000000 0.000000 0.000000
s off
g pPlane7
f 25/25/25 26/26/26 28/27/27 27/28/28
g default
v 310.269226 -16.755919 -232.228581
v 310.269226 -16.755919 -247.707842
v 310.269226 -2.723925 -232.228581
v 310.269226 -2.723925 -247.707842
vt 0.000000 0.000000
vt 1.000000 0.000000
vt 1.000000 0.998936
vt 0.000000 0.998936
vn 1.000000 0.000000 0.000000
vn 1.000000 0.000000 0.000000
vn 1.000000 0.000000 0.000000
vn 1.000000 0.000000 0.000000
s off
g pPlane8
f 29/29/29 30/30/30 32/31/31 31/32/32
g default
v 130.253448 23.434832 -92.232235
v 130.253448 23.434832 -107.711501
v 130.253448 37.466826 -92.232235
v 130.253448 37.466826 -107.711501
vt 0.000000 0.000000
vt 1.000000 0.000000
vt 1.000000 0.998936
vt 0.000000 0.998936
vn 1.000000 0.000000 0.000000
vn 1.000000 0.000000 0.000000
vn 1.000000 0.000000 0.000000
vn 1.000000 0.000000 0.000000
s off
g pPlane9
f 33/33/33 34/34/34 36/35/35 35/36/36
g default
v 62.466279 -16.874971 -349.151287
v 37.816114 -16.874971 -349.151288
v 62.466279 -2.842977 -349.151287
v 37.816114 -2.842977 -349.151288
vt 0.003886 0.000000
vt 1.000000 0.000000
vt 1.000000 0.998936
vt 0.003886 0.998936
vn 0.000000 0.000000 -1.000000
vn 0.000000 0.000000 -1.000000
vn 0.000000 0.000000 -1.000000
vn 0.000000 0.000000 -1.000000
s off
g pPlane10
f 37/37/37 38/38/38 40/39/39 39/40/40
g default
v 222.306099 22.934197 -30.612373
v 197.655941 22.934197 -30.612373
v 222.306099 36.966190 -30.612373
v 197.655941 36.966190 -30.612373
vt 0.006248 -0.005468
vt 0.994532 -0.005468
vt 0.994532 0.993468
vt 0.006248 0.993468
vn 0.000000 0.000000 -1.000000
vn 0.000000 0.000000 -1.000000
vn 0.000000 0.000000 -1.000000
vn 0.000000 0.000000 -1.000000
s off
g pPlane11
f 41/41/41 42/42/42 44/43/43 43/44/44
g default
v 309.636200 -16.881989 -342.465875
v 309.636200 -16.881989 -317.815728
v 309.636200 -2.849996 -342.465875
v 309.636200 -2.849996 -317.815728
vt 0.003886 0.000000
vt 1.000000 0.000000
vt 1.000000 0.998936
vt 0.003886 0.998936
vn -1.000000 0.000000 0.000000
vn -1.000000 0.000000 0.000000
vn -1.000000 0.000000 0.000000
vn -1.000000 0.000000 0.000000
s off
g pPlane12
f 45/45/45 46/46/46 48/47/47 47/48/48
g default
v 222.327509 -17.062314 -30.475769
v 197.677350 -17.062314 -30.475771
v 222.327509 -3.030320 -30.475769
v 197.677350 -3.030320 -30.475771
vt 0.003886 0.000000
vt 1.000000 0.000000
vt 1.000000 0.998936
vt 0.003886 0.998936
vn 0.000000 0.000000 -1.000000
vn 0.000000 0.000000 -1.000000
vn 0.000000 0.000000 -1.000000
vn 0.000000 0.000000 -1.000000
s off
g pPlane13
f 49/49/49 50/50/50 52/51/51 51/52/52
g default
v 287.834683 3.305802 9.528425
v 272.355411 3.305802 9.519983
v 287.834683 17.337796 9.528425
v 272.355411 17.337796 9.519983
vt 0.000000 0.000000
vt 1.000000 0.000000
vt 1.000000 0.998936
vt 0.000000 0.998936
vn 0.000545 0.000000 -1.000000
vn 0.000545 0.000000 -1.000000
vn 0.000545 0.000000 -1.000000
vn 0.000545 0.000000 -1.000000
s off
g pPlane14
f 53/53/53 54/54/54 56/55/55 55/56/56
g default
v 498.520006 1.844607 -89.183790
v 541.395632 1.844607 -89.183790
v 498.520006 18.391494 -89.183790
v 541.395632 18.391494 -89.183790
vt 0.000000 -0.001163
vt 1.000000 -0.001163
vt 0.000000 1.001851
vt 1.000000 1.001851
vn 0.000000 0.000000 1.000000
vn 0.000000 0.000000 1.000000
vn 0.000000 0.000000 1.000000
vn 0.000000 0.000000 1.000000
s off
g pPlane15
f 57/57/57 58/58/58 60/60/59 59/59/60
