# This file uses centimeters as units for non-parametric coordinates.

g default
v 109.783081 2.771396 -89.769681
v 109.783081 2.771396 -70.420604
v 109.783081 19.173265 -89.769681
v 109.783081 19.173265 -70.420604
vt 0.000000 0.000000
vt 1.000000 0.000000
vt 0.000000 0.998936
vt 1.000000 0.998936
vn -1.000000 -0.000000 0.000000
vn -1.000000 -0.000000 0.000000
vn -1.000000 -0.000000 0.000000
vn -1.000000 -0.000000 0.000000
s off
g pPlane1
f 1/1/1 2/2/2 4/4/3 3/3/4
g default
v 9.861219 2.771396 -22.634330
v 9.861219 2.771396 8.178369
v 9.861219 19.173265 -22.634330
v 9.861219 19.173265 8.178369
vt -0.993766 0.000000
vt 1.000000 0.000000
vt -0.993766 0.998936
vt 1.000000 0.998936
vn -1.000000 -0.000000 -0.000000
vn -1.000000 -0.000000 -0.000000
vn -1.000000 -0.000000 -0.000000
vn -1.000000 -0.000000 -0.000000
s off
g pPlane2
f 5/5/5 6/6/6 8/8/7 7/7/8
g default
v -29.937555 2.771396 -69.535672
v -10.588478 2.771396 -69.535672
v -29.937555 19.173265 -69.535672
v -10.588478 19.173265 -69.535672
vt 0.000000 0.000000
vt 1.000000 0.000000
vt 0.000000 0.998936
vt 1.000000 0.998936
vn 0.000000 0.000000 1.000000
vn 0.000000 0.000000 1.000000
vn 0.000000 0.000000 1.000000
vn 0.000000 0.000000 1.000000
s off
g pPlane3
f 9/9/9 10/10/10 12/12/11 11/11/12
g default
v 31.206749 2.771396 -271.408292
v 31.206749 2.771396 -290.757369
v 31.206749 19.173265 -271.408292
v 31.206749 19.173265 -290.757369
vt 0.000000 0.000000
vt 1.000000 0.000000
vt 0.000000 0.998936
vt 1.000000 0.998936
vn 1.000000 -0.000000 -0.000000
vn 1.000000 -0.000000 -0.000000
vn 1.000000 -0.000000 -0.000000
vn 1.000000 -0.000000 -0.000000
s off
g pPlane4
f 13/13/13 14/14/14 16/16/15 15/15/16
g default
v 129.598417 22.451444 -209.393137
v 129.598418 22.451444 -190.044060
v 129.598417 38.853313 -209.393137
v 129.598418 38.853313 -190.044060
vt 0.000000 0.000000
vt 1.000000 0.000000
vt 0.000000 0.998936
vt 1.000000 0.998936
vn -1.000000 -0.000000 0.000000
vn -1.000000 -0.000000 0.000000
vn -1.000000 -0.000000 0.000000
vn -1.000000 -0.000000 0.000000
s off
g pPlane5
f 17/17/17 18/18/18 20/20/19 19/19/20
g default
v 209.652033 1.304238 -190.313562
v 190.302956 1.304238 -190.313562
v 209.652033 17.706107 -190.313562
v 190.302956 17.706107 -190.313562
vt 0.000000 0.000000
vt 1.000000 0.000000
vt 0.000000 0.998936
vt 1.000000 0.998936
vn -0.000000 0.000000 -1.000000
vn -0.000000 0.000000 -1.000000
vn -0.000000 0.000000 -1.000000
vn -0.000000 0.000000 -1.000000
s off
g pPlane6
f 21/21/21 22/22/22 24/24/23 23/23/24
g default
v 250.812135 22.749632 -91.364882
v 250.812135 22.749632 -110.713959
v 250.812135 39.151501 -91.364882
v 250.812135 39.151501 -110.713959
vt 0.000000 0.000000
vt 1.000000 0.000000
vt 0.000000 0.998936
vt 1.000000 0.998936
vn 1.000000 0.000000 -0.000000
vn 1.000000 0.000000 -0.000000
vn 1.000000 0.000000 -0.000000
vn 1.000000 0.000000 -0.000000
s off
g pPlane7
f 25/25/25 26/26/26 28/28/27 27/27/28
g default
v 310.269218 -17.940856 -229.533089
v 310.269218 -17.940856 -248.882166
v 310.269218 -1.538987 -229.533089
v 310.269218 -1.538987 -248.882166
vt 0.000000 0.000000
vt 1.000000 0.000000
vt 0.000000 0.998936
vt 1.000000 0.998936
vn 1.000000 0.000000 -0.000000
vn 1.000000 0.000000 -0.000000
vn 1.000000 0.000000 -0.000000
vn 1.000000 0.000000 -0.000000
s off
g pPlane8
f 29/29/29 30/30/30 32/32/31 31/31/32
g default
v 130.253448 21.633942 -89.876536
v 130.253448 21.633942 -109.225613
v 130.253448 38.035811 -89.876536
v 130.253448 38.035811 -109.225613
vt 0.000000 0.000000
vt 1.000000 0.000000
vt 0.000000 0.998936
vt 1.000000 0.998936
vn 1.000000 0.000000 -0.000000
vn 1.000000 0.000000 -0.000000
vn 1.000000 0.000000 -0.000000
vn 1.000000 0.000000 -0.000000
s off
g pPlane9
f 33/33/33 34/34/34 36/36/35 35/35/36
g default
v 121.970998 -16.935978 -30.326216
v 91.158298 -16.935978 -30.326217
v 121.970998 -0.534109 -30.326216
v 91.158298 -0.534109 -30.326217
vt -0.993766 0.000000
vt 1.000000 0.000000
vt -0.993766 0.998936
vt 1.000000 0.998936
vn 0.000000 0.000000 -1.000000
vn 0.000000 0.000000 -1.000000
vn 0.000000 0.000000 -1.000000
vn 0.000000 0.000000 -1.000000
s off
g pPlane10
f 37/37/37 38/38/38 40/40/39 39/39/40
g default
v 227.816824 22.409372 -30.612374
v 197.004125 22.409372 -30.612374
v 227.816824 38.811241 -30.612374
v 197.004125 38.811241 -30.612374
vt -0.993766 0.000000
vt 1.000000 0.000000
vt -0.993766 0.998936
vt 1.000000 0.998936
vn 0.000000 0.000000 -1.000000
vn 0.000000 0.000000 -1.000000
vn 0.000000 0.000000 -1.000000
vn 0.000000 0.000000 -1.000000
s off
g pPlane11
f 41/41/41 42/42/42 44/44/43 43/43/44
g default
v 309.636186 -17.947420 -349.152569
v 309.636186 -17.947420 -318.339870
v 309.636186 -1.545551 -349.152569
v 309.636186 -1.545551 -318.339870
vt -0.993766 0.000000
vt 1.000000 0.000000
vt -0.993766 0.998936
vt 1.000000 0.998936
vn -1.000000 0.000000 -0.000000
vn -1.000000 0.000000 -0.000000
vn -1.000000 0.000000 -0.000000
vn -1.000000 0.000000 -0.000000
s off
g pPlane12
f 45/45/45 46/46/46 48/48/47 47/47/48
g default
v 229.279986 -18.247251 -30.475769
v 198.467287 -18.247251 -30.475770
v 229.279986 -1.845382 -30.475769
v 198.467287 -1.845382 -30.475770
vt -0.993766 0.000000
vt 1.000000 0.000000
vt -0.993766 0.998936
vt 1.000000 0.998936
vn 0.000000 -0.000000 -1.000000
vn 0.000000 -0.000000 -1.000000
vn 0.000000 -0.000000 -1.000000
vn 0.000000 -0.000000 -1.000000
s off
g pPlane13
f 49/49/49 50/50/50 52/52/51 51/51/52
g default
v 289.769583 2.120864 9.529480
v 270.420509 2.120864 9.518928
v 289.769583 18.522733 9.529480
v 270.420509 18.522733 9.518928
vt 0.000000 0.000000
vt 1.000000 0.000000
vt 0.000000 0.998936
vt 1.000000 0.998936
vn 0.000545 -0.000000 -1.000000
vn 0.000545 -0.000000 -1.000000
vn 0.000545 -0.000000 -1.000000
vn 0.000545 -0.000000 -1.000000
s off
g pPlane14
f 53/53/53 54/54/54 56/56/55 55/55/56
